<?xml version="1.0"?>

<!DOCTYPE svg PUBLIC '-//W3C//DTD SVG 1.0//EN' 'http://www.w3.org/TR/2001/REC-SVG-20010904/DTD/svg10.dtd'>
<svg fill-opacity="1" xmlns:xlink="http://www.w3.org/1999/xlink" color-rendering="auto" color-interpolation="auto" text-rendering="auto" stroke="black" stroke-linecap="square" stroke-miterlimit="10" shape-rendering="auto" stroke-opacity="1" fill="black" stroke-dasharray="none" font-weight="normal" stroke-width="1" xmlns="http://www.w3.org/2000/svg" font-family="&apos;Dialog&apos;" font-style="normal" stroke-linejoin="miter" font-size="12" stroke-dashoffset="0" image-rendering="auto">
  <!--Unicode Character 'BLACK DRAUGHTS KING' (U+26C3)-->
  <defs id="genericDefs" />
  <g>
    <g>
      <path d="M131.0625 365.625 Q111.9375 365.625 92.8125 363.6562 Q73.6875 361.6875 50.625 355.2188 Q27.5625 348.75 14.0625 336.9375 L10.125 333 L10.125 212.625 L11.8125 197.4375 Q27.5625 185.625 50.625 179.1562 Q73.6875 172.6875 92.8125 170.7188 Q111.9375 168.75 131.0625 168.75 Q150.1875 168.75 169.3125 170.7188 Q188.4375 172.6875 211.5 179.1562 Q234.5625 185.625 250.3125 197.4375 L252 212.625 L252 333 L248.0625 336.9375 Q234.5625 348.75 211.5 355.2188 Q188.4375 361.6875 169.3125 363.6562 Q150.1875 365.625 131.0625 365.625 ZM131.0625 361.125 Q150.1875 361.125 169.3125 359.1562 Q188.4375 357.1875 211.5 350.7188 Q234.5625 344.25 245.8125 333.5625 L247.5 330.1875 L247.5 214.3125 L245.8125 200.8125 Q234.5625 190.125 211.5 183.6562 Q188.4375 177.1875 169.3125 175.2188 Q150.1875 173.25 131.0625 173.25 Q111.9375 173.25 92.8125 175.2188 Q73.6875 177.1875 50.625 183.6562 Q27.5625 190.125 16.3125 200.8125 L14.625 214.3125 L14.625 330.1875 L16.3125 333.5625 Q27.5625 344.25 50.625 350.7188 Q73.6875 357.1875 92.8125 359.1562 Q111.9375 361.125 131.0625 361.125 ZM131.0625 347.0625 Q112.7812 347.0625 97.875 345.6562 L97.875 320.0625 L86.625 318.9375 L86.625 344.25 L75.375 342.5625 L75.375 317.25 L64.125 314.7188 L64.125 340.3125 L52.875 337.2188 L52.875 311.9062 L41.625 308.5312 L41.625 334.125 L30.375 329.0625 L30.375 295.875 Q39.375 300.375 50.625 303.4688 Q73.6875 309.9375 92.8125 311.9062 Q111.9375 313.875 131.0625 313.875 Q150.1875 313.875 169.3125 311.9062 Q188.4375 309.9375 211.5 303.4688 Q222.75 300.375 231.75 295.875 L231.75 329.0625 Q222.75 333.5625 211.5 336.6562 Q188.4375 343.125 169.3125 345.0938 Q150.1875 347.0625 131.0625 347.0625 ZM131.0625 302.0625 Q111.9375 302.0625 92.8125 300.0938 Q73.6875 298.125 50.625 291.6562 Q39.375 288.5625 30.375 284.0625 L30.375 278.4375 Q39.375 282.9375 50.625 286.0312 Q73.6875 292.5 92.8125 294.4688 Q111.9375 296.4375 131.0625 296.4375 Q150.1875 296.4375 169.3125 294.4688 Q188.4375 292.5 211.5 286.0312 Q222.75 282.9375 231.75 278.4375 L231.75 284.0625 Q222.75 288.5625 211.5 291.6562 Q188.4375 298.125 169.3125 300.0938 Q150.1875 302.0625 131.0625 302.0625 ZM131.0625 282.375 Q112.7812 282.375 97.875 280.9688 L97.875 255.375 L86.625 254.25 L86.625 279.5625 L75.375 277.875 L75.375 252.5625 L64.125 250.0312 L64.125 275.625 L52.875 272.5312 L52.875 247.2188 L41.625 243.8438 L41.625 269.4375 L30.375 264.375 L30.375 231.1875 Q39.375 235.6875 50.625 238.7812 Q73.6875 245.25 92.8125 247.2188 Q111.9375 249.1875 131.0625 249.1875 Q150.1875 249.1875 169.3125 247.2188 Q188.4375 245.25 211.5 238.7812 Q222.75 235.6875 231.75 231.1875 L231.75 264.375 Q222.75 268.875 211.5 271.9688 Q188.4375 278.4375 169.3125 280.4062 Q150.1875 282.375 131.0625 282.375 ZM131.0625 237.375 Q111.9375 237.375 92.8125 235.4062 Q73.6875 233.4375 50.625 226.9688 Q42.1875 223.875 33.75 216 L33.75 206.4375 Q39.375 200.25 58.2188 194.3438 Q77.0625 188.4375 96.4688 186.4688 Q115.875 184.5 131.0625 184.5 Q146.25 184.5 165.6562 186.4688 Q185.0625 188.4375 203.9062 194.3438 Q222.75 200.25 228.375 206.4375 L228.375 216 Q219.9375 223.875 211.5 226.9688 Q188.4375 233.4375 169.3125 235.4062 Q150.1875 237.375 131.0625 237.375 Z" stroke="none" />
    </g>
  </g>
</svg>
